HIERARCHY
ROOT Hips
{
	OFFSET 0.00000 0.00000 0.00000
	CHANNELS 6 Xposition Yposition Zposition Zrotation Yrotation Xrotation 
	JOINT LHipJoint
	{
		OFFSET 0 0 0
		CHANNELS 3 Zrotation Yrotation Xrotation
		JOINT LeftUpLeg
		{
			OFFSET 1.52977 -1.71332 0.88991
			CHANNELS 3 Zrotation Yrotation Xrotation
			JOINT LeftLeg
			{
				OFFSET 2.23949 -6.15296 0.00000
				CHANNELS 3 Zrotation Yrotation Xrotation
				JOINT LeftFoot
				{
					OFFSET 2.68396 -7.37412 0.00000
					CHANNELS 3 Zrotation Yrotation Xrotation
					JOINT LeftToeBase
					{
						OFFSET 0.20538 -0.56428 2.52710
						CHANNELS 3 Zrotation Yrotation Xrotation
						End Site
						{
							OFFSET 0.00000 -0.00000 1.29919
						}
					}
				}
			}
		}
	}
	JOINT RHipJoint
	{
		OFFSET 0 0 0
		CHANNELS 3 Zrotation Yrotation Xrotation
		JOINT RightUpLeg
		{
			OFFSET -1.45689 -1.71333 0.88991
			CHANNELS 3 Zrotation Yrotation Xrotation
			JOINT RightLeg
			{
				OFFSET -2.36700 -6.50329 0.00000
				CHANNELS 3 Zrotation Yrotation Xrotation
				JOINT RightFoot
				{
					OFFSET -2.69814 -7.41308 0.00000
					CHANNELS 3 Zrotation Yrotation Xrotation
					JOINT RightToeBase
					{
						OFFSET -0.18734 -0.51471 2.37479
						CHANNELS 3 Zrotation Yrotation Xrotation
						End Site
						{
							OFFSET -0.00000 -0.00000 1.22113
						}
					}
				}
			}
		}
	}
	JOINT LowerBack
	{
		OFFSET 0 0 0
		CHANNELS 3 Zrotation Yrotation Xrotation
		JOINT Spine
		{
			OFFSET 0.04294 2.14638 -0.31163
			CHANNELS 3 Zrotation Yrotation Xrotation
			JOINT Spine1
			{
				OFFSET -0.00400 2.17216 0.01486
				CHANNELS 3 Zrotation Yrotation Xrotation
				JOINT Neck
				{
					OFFSET 0 0 0
					CHANNELS 3 Zrotation Yrotation Xrotation
					JOINT Neck1
					{
						OFFSET 0.03869 1.76598 0.14916
						CHANNELS 3 Zrotation Yrotation Xrotation
						JOINT Head
						{
							OFFSET -0.00760 1.75513 -0.18948
							CHANNELS 3 Zrotation Yrotation Xrotation
							End Site
							{
								OFFSET -0.00601 1.82444 -0.08310
							}
						}
					}
				}
				JOINT LeftShoulder
				{
					OFFSET 0 0 0
					CHANNELS 3 Zrotation Yrotation Xrotation
					JOINT LeftArm
					{
						OFFSET 3.73696 0.92058 0.01733
						CHANNELS 3 Zrotation Yrotation Xrotation
						JOINT LeftForeArm
						{
							OFFSET 5.22771 -0.00000 0.00000
							CHANNELS 3 Zrotation Yrotation Xrotation
							JOINT LeftHand
							{
								OFFSET 3.45251 -0.00000 0.00000
								CHANNELS 3 Zrotation Yrotation Xrotation
								JOINT LeftFingerBase
								{
									OFFSET 0 0 0
									CHANNELS 3 Zrotation Yrotation Xrotation
									JOINT LeftHandIndex1
									{
										OFFSET 0.55212 -0.00000 0.00000
										CHANNELS 3 Zrotation Yrotation Xrotation
										End Site
										{
											OFFSET 0.44513 -0.00000 0.00000
										}
									}
								}
								JOINT LThumb
								{
									OFFSET 0 0 0
									CHANNELS 3 Zrotation Yrotation Xrotation
									End Site
									{
										OFFSET 0.45193 -0.00000 0.45193
									}
								}
							}
						}
					}
				}
				JOINT RightShoulder
				{
					OFFSET 0 0 0
					CHANNELS 3 Zrotation Yrotation Xrotation
					JOINT RightArm
					{
						OFFSET -3.63819 0.83094 -0.13694
						CHANNELS 3 Zrotation Yrotation Xrotation
						JOINT RightForeArm
						{
							OFFSET -5.23980 -0.00000 -0.00000
							CHANNELS 3 Zrotation Yrotation Xrotation
							JOINT RightHand
							{
								OFFSET -3.48042 -0.00000 -0.00000
								CHANNELS 3 Zrotation Yrotation Xrotation
								JOINT RightFingerBase
								{
									OFFSET 0 0 0
									CHANNELS 3 Zrotation Yrotation Xrotation
									JOINT RightHandIndex1
									{
										OFFSET -0.61871 -0.00000 0.00000
										CHANNELS 3 Zrotation Yrotation Xrotation
										End Site
										{
											OFFSET -0.49882 -0.00000 0.00000
										}
									}
								}
								JOINT RThumb
								{
									OFFSET 0 0 0
									CHANNELS 3 Zrotation Yrotation Xrotation
									End Site
									{
										OFFSET -0.50644 -0.00000 0.50644
									}
								}
							}
						}
					}
				}
			}
		}
	}
}
MOTION
Frames: 9
Frame Time: 0.0273973
0.00 0.00 0.00 121.8560 -70.0053 236.3320 0.0000 0.0000 0.0000 -27.0330 7.3003 -40.8607 13.4584 18.9415 70.5435 2.2451 4.5107 -30.1923 0.6579 -5.1879 -14.4452 0.0000 0.0000 0.0000 -13.9938 5.8498 -51.2220 -18.8205 -19.9666 86.5496 -2.2391 3.7225 -27.4063 -0.7863 5.6607 -15.8031 -2.7300 1.3326 30.1895 -9.2232 -1.8629 18.2693 -7.9098 -1.6597 3.7726 -2.0387 2.0939 -5.2214 -1.0474 1.2423 39.8268 -0.0568 -0.4811 14.6261 -0.0000 -0.0000 0.0000 -35.2885 -29.8219 41.0684 58.3324 -55.8489 -32.9572 -0.0000 0.0000 -20.0937 -27.4302 32.2700 -15.4885 -7.1250 0.0000 -0.0000 -59.2558 52.8329 -15.8491 -0.0000 -0.0000 0.0000 31.8771 26.0060 65.0129 -58.9740 56.0303 -33.4888 0.0000 -0.0000 -6.9522 31.0449 -13.3115 -7.8904 7.1250 -0.0000 -0.0000 46.5631 -38.1876 10.8900
0.00 0.00 0.00 99.0577 -78.1375 254.3540 0.0000 0.0000 0.0000 -18.4517 7.9858 -32.4929 11.3895 18.1205 64.0402 0.6756 2.9934 -16.8971 0.5453 -4.7310 -13.1430 0.0000 0.0000 0.0000 -0.6350 4.4025 -32.6401 -14.7647 -19.3298 74.5270 -3.0077 -4.5307 -34.5880 -0.4072 4.0967 -11.3488 -1.4845 0.6997 25.5646 -6.8247 -1.6574 18.6027 -6.5347 -1.4078 6.6440 1.5884 2.9420 -3.8049 -1.8828 2.3825 37.6738 -0.8882 0.4594 13.3644 0.0000 0.0000 0.0000 -36.8286 -32.9090 41.1139 14.6364 -23.6371 -3.0787 -0.0000 0.0000 -2.3099 17.4940 35.9180 10.4754 -7.1250 0.0000 -0.0000 -21.2838 66.0197 -11.0142 0.0000 0.0000 0.0000 49.6406 22.8973 47.6465 -14.2782 23.1311 -2.9365 0.0000 0.0000 7.4477 -15.6490 -32.1686 8.4828 7.1250 -0.0000 -0.0000 19.6918 -62.0607 -8.3456
0.00 0.00 0.00 76.2990 -80.8636 275.8330 0.0000 0.0000 0.0000 -14.4996 9.8906 -34.2143 11.7974 18.3037 65.3451 0.1160 1.8181 -7.3717 0.4590 -4.3460 -12.0521 0.0000 0.0000 0.0000 5.0470 1.2337 -26.4275 -12.6611 -18.6563 68.0694 -3.0537 -6.9792 -35.9805 -0.2022 2.8956 -7.9881 -0.8835 0.2786 23.2668 -5.7634 -1.7200 18.2434 -5.6777 -1.3577 7.2878 3.2652 3.0986 -3.1847 -1.3029 2.3062 36.4353 -0.9569 0.7382 12.7063 0.0000 0.0000 0.0000 -37.5487 -33.3859 31.8591 10.3530 -17.2899 -1.5783 -0.0000 0.0000 -0.0705 27.9044 34.1637 16.5617 -7.1250 0.0000 -0.0000 -6.7292 67.3894 -3.6315 0.0000 0.0000 0.0000 54.6419 23.6039 16.8936 -8.1138 13.7372 -0.9790 0.0000 0.0000 22.8453 -29.6465 -28.7647 15.3168 7.1250 -0.0000 -0.0000 1.2737 -62.2534 -0.5343
0.00 0.00 0.00 48.5856 -81.6026 302.6140 0.0000 0.0000 0.0000 -11.4599 12.4409 -37.9840 12.8013 18.7092 68.5071 0.0114 0.8383 1.9024 0.3746 -3.9310 -10.8826 0.0000 0.0000 0.0000 9.6813 -1.9670 -21.6525 -10.7434 -17.8072 61.9455 -2.9715 -8.9086 -36.5756 -0.0829 1.8569 -5.1103 -0.3632 -0.1156 21.2991 -4.8246 -1.8633 17.7502 -4.9088 -1.3585 7.6421 4.5664 3.1678 -2.6303 -0.6047 2.1532 35.1923 -0.9280 0.9312 12.0795 -0.0000 -0.0000 0.0000 -38.5374 -35.3297 14.0463 7.2122 -12.2679 -0.7761 -0.0000 -0.0000 9.5557 33.1349 30.3916 18.2751 -7.1250 0.0000 -0.0000 2.5296 64.9701 1.2222 -0.0000 -0.0000 0.0000 55.5665 24.9360 -19.9818 -5.5183 9.4563 -0.4568 0.0000 0.0000 44.0116 -37.5360 -24.7019 17.8009 7.1250 -0.0000 -0.0000 -9.5948 -59.8410 3.4950
0.00 0.00 0.00 10.9237 -79.2155 339.0470 0.0000 0.0000 0.0000 -8.0682 17.9574 -47.5541 15.5219 19.5123 76.8038 0.7666 -0.0790 16.5787 0.2251 -3.0542 -8.4297 0.0000 0.0000 0.0000 16.5588 -7.2474 -14.9924 -7.7372 -15.9225 51.6105 -2.6639 -11.8370 -36.7666 -0.0023 0.3085 -0.8476 0.4577 -0.7847 18.2930 -3.2829 -2.2541 16.6243 -3.6351 -1.4481 7.7999 6.1666 3.1832 -1.7160 0.7132 1.8598 33.0300 -0.7427 1.1454 11.0409 0.0000 -0.0000 0.0000 -38.2187 -39.2625 -19.0835 4.6935 -8.0665 -0.3311 -0.0000 -0.0000 27.1714 37.8357 25.4606 18.4635 -7.1250 0.0000 -0.0000 9.9120 60.7927 3.8368 0.0000 -0.0000 0.0000 53.6023 24.4164 -55.0256 -5.5299 9.4759 -0.4587 0.0000 0.0000 54.1583 -44.1401 -20.3427 18.6420 7.1250 -0.0000 -0.0000 -17.6338 -56.4201 5.0475
0.00 0.00 0.00 -11.7004 -72.9877 360.3790 0.0000 0.0000 0.0000 -8.5624 26.9720 -65.0667 20.5154 19.9936 91.5069 2.9685 2.9450 31.9132 0.0084 -0.5905 -1.6227 0.0000 0.0000 0.0000 24.5975 -13.8607 -7.3202 -4.2747 -12.5173 37.5874 -2.0429 -15.4562 -36.1714 -0.0458 -1.3807 3.7969 1.2450 -1.7501 14.4602 -1.2870 -3.0706 14.4130 -1.8712 -1.7495 7.2423 7.2894 3.0377 -0.3402 2.6911 1.4563 29.8408 -0.2802 1.2583 9.5782 0.0000 -0.0000 0.0000 -36.7765 -41.9789 -40.2362 5.5261 -9.4695 -0.4581 -0.0000 -0.0000 21.3011 38.1866 19.0507 14.3986 -7.1250 0.0000 -0.0000 10.5421 53.3902 2.1945 0.0000 -0.0000 0.0000 50.3434 21.5994 -60.8056 -7.8637 13.3317 -0.9205 0.0000 0.0000 29.1929 -47.3163 -17.0591 17.6454 7.1250 -0.0000 -0.0000 -20.6875 -53.1235 4.2794
0.00 0.00 0.00 -18.5411 -68.5214 366.5700 0.0000 0.0000 0.0000 -13.1423 32.6031 -78.2516 23.9457 19.6226 101.6066 4.1855 9.6855 37.2536 0.1547 2.5340 6.9840 0.0000 0.0000 0.0000 29.2435 -17.5627 -2.7982 -2.5883 -9.9968 28.9663 -1.6793 -17.3917 -35.8915 -0.1261 -2.2894 6.3060 1.4708 -2.4332 11.7686 -0.0350 -3.7561 12.3611 -0.6620 -2.0413 6.4173 7.3941 2.7789 0.7246 4.0828 1.1412 27.3118 0.1319 1.2024 8.4701 0.0000 0.0000 0.0000 -39.4898 -41.6905 -29.6491 10.3122 -17.2264 -1.5661 -0.0000 0.0000 -12.6136 37.8515 16.7030 12.5905 -7.1250 0.0000 -0.0000 10.1357 50.5133 1.3895 0.0000 0.0000 0.0000 48.7120 19.3584 -56.3708 -11.2141 18.6157 -1.8437 0.0000 0.0000 3.9963 -47.3347 -14.0360 14.7431 7.1250 -0.0000 -0.0000 -19.8230 -49.1687 2.1132
0.00 0.00 0.00 -22.2372 -64.6524 370.0330 0.0000 0.0000 0.0000 -18.7777 35.7942 -88.1330 26.1850 19.0570 108.3612 4.3298 16.8362 38.0241 0.7465 5.5191 15.3952 0.0000 0.0000 0.0000 32.9529 -20.1217 1.4943 -1.3948 -7.4717 21.1205 -1.3841 -18.6785 -35.5035 -0.2079 -2.9360 8.1006 1.3557 -3.1116 8.7876 1.0587 -4.4859 9.7193 0.5147 -2.3674 5.2356 6.8774 2.3173 2.0054 5.4044 0.7786 23.9658 0.5964 1.0095 7.0815 0.0000 0.0000 0.0000 -45.4813 -39.6592 -22.0598 20.3108 -31.0150 -5.6906 -0.0000 0.0000 -49.8620 37.4061 14.5541 10.8779 -7.1250 0.0000 -0.0000 9.6155 47.8437 0.6805 0.0000 0.0000 0.0000 48.5116 16.9157 -49.3847 -18.1495 28.3482 -4.6200 0.0000 -0.0000 -25.5672 -44.9867 -8.4355 8.3417 7.1250 -0.0000 -0.0000 -16.1309 -41.2661 -1.5302
0.00 0.00 0.00 -24.6507 -62.3180 373.0710 0.0000 0.0000 0.0000 -16.8876 35.0757 -87.2034 25.7307 19.1937 106.9747 4.3114 13.8212 37.7726 0.5990 4.9545 13.7788 0.0000 0.0000 0.0000 34.9321 -23.2945 9.4063 -0.1391 -2.4035 6.6223 -0.1797 -20.5893 -30.3494 -0.2378 -3.1381 8.6635 1.3020 -3.6920 5.2683 2.0628 -5.1038 6.1927 1.5014 -2.6241 3.5345 5.6197 1.3820 3.7259 6.2960 0.2228 18.2779 1.0115 0.5496 4.9286 0.0000 -0.0000 0.0000 -54.5498 -33.9634 -13.5925 42.0872 -49.2590 -20.0066 -0.0000 0.0000 -85.7579 31.9097 19.6087 11.8031 -7.1250 0.0000 -0.0000 3.7180 52.7086 0.7061 0.0000 -0.0000 0.0000 50.4356 13.8368 -39.9987 -34.8587 44.7110 -14.7139 0.0000 -0.0000 -58.8889 -36.6217 -4.5639 3.3846 7.1250 -0.0000 -0.0000 -8.3167 -35.5572 -1.9465
